<svg xmlns="http://www.w3.org/2000/svg" viewBox="0 0 64 64" fill="none">
  <!-- Head (smaller, positioned lower for young boy) -->
  <circle cx="32" cy="24" r="8" fill="#FFD4A3" stroke="#E0A370" stroke-width="1"/>

  <!-- Short messy hair -->
  <path d="M 26 18 Q 28 14 32 14 Q 36 14 38 18 L 38 20 Q 36 17 32 17 Q 28 17 26 20 Z" fill="#8B4513"/>
  <path d="M 28 16 L 30 14 L 29 18" fill="#8B4513"/>
  <path d="M 36 16 L 34 14 L 35 18" fill="#8B4513"/>

  <!-- Eyes -->
  <circle cx="29" cy="23" r="1.3" fill="#2C3E50"/>
  <circle cx="35" cy="23" r="1.3" fill="#2C3E50"/>

  <!-- Smile -->
  <path d="M 28 27 Q 32 29 36 27" stroke="#E67E22" stroke-width="1.2" stroke-linecap="round" fill="none"/>

  <!-- Neck -->
  <rect x="29" y="31" width="6" height="3" fill="#FFD4A3"/>

  <!-- T-shirt -->
  <rect x="26" y="34" width="12" height="12" rx="1" fill="#4ECDC4" stroke="#2C7A7B" stroke-width="1.5"/>

  <!-- Shorts -->
  <rect x="26" y="46" width="5" height="8" rx="1" fill="#FF6B6B" stroke="#D63031" stroke-width="1"/>
  <rect x="33" y="46" width="5" height="8" rx="1" fill="#FF6B6B" stroke="#D63031" stroke-width="1"/>

  <!-- Arms -->
  <path d="M 26 36 Q 20 40 18 46" stroke="#FFD4A3" stroke-width="3.5" stroke-linecap="round"/>
  <path d="M 38 36 Q 44 40 46 46" stroke="#FFD4A3" stroke-width="3.5" stroke-linecap="round"/>
</svg>
