<svg xmlns="http://www.w3.org/2000/svg" viewBox="0 0 64 64" fill="none">
  <!-- Head -->
  <circle cx="32" cy="20" r="10" fill="#FFD4A3" stroke="#E0A370" stroke-width="1"/>

  <!-- Short hair -->
  <path d="M 24 12 Q 28 8 32 8 Q 36 8 40 12 L 40 16 Q 38 14 32 14 Q 26 14 24 16 Z" fill="#2C3E50"/>

  <!-- Eyes -->
  <circle cx="28" cy="19" r="1.5" fill="#2C3E50"/>
  <circle cx="36" cy="19" r="1.5" fill="#2C3E50"/>

  <!-- Smile -->
  <path d="M 27 24 Q 32 26 37 24" stroke="#E67E22" stroke-width="1.5" stroke-linecap="round" fill="none"/>

  <!-- Neck -->
  <rect x="28" y="28" width="8" height="4" fill="#FFD4A3"/>

  <!-- Shirt -->
  <path d="M 24 32 L 24 44 L 40 44 L 40 32 Z" fill="#4ECDC4" stroke="#2C7A7B" stroke-width="1.5"/>

  <!-- Collar -->
  <path d="M 28 32 L 30 30 L 32 32" fill="#FFFFFF" stroke="#2C7A7B" stroke-width="0.8"/>
  <path d="M 36 32 L 34 30 L 32 32" fill="#FFFFFF" stroke="#2C7A7B" stroke-width="0.8"/>

  <!-- Pants -->
  <rect x="24" y="44" width="7" height="14" rx="1" fill="#2C3E50" stroke="#1a1a1a" stroke-width="1"/>
  <rect x="33" y="44" width="7" height="14" rx="1" fill="#2C3E50" stroke="#1a1a1a" stroke-width="1"/>

  <!-- Arms -->
  <path d="M 24 34 Q 16 38 14 45" stroke="#FFD4A3" stroke-width="4" stroke-linecap="round"/>
  <path d="M 40 34 Q 48 38 50 45" stroke="#FFD4A3" stroke-width="4" stroke-linecap="round"/>

  <!-- Belt -->
  <rect x="24" y="43" width="16" height="2" fill="#8B4513"/>
</svg>
