<svg xmlns="http://www.w3.org/2000/svg" viewBox="0 0 64 64" fill="none">
  <!-- Head (smaller, positioned lower for young girl) -->
  <circle cx="32" cy="24" r="8" fill="#FFD4A3" stroke="#E0A370" stroke-width="1"/>

  <!-- Hair with pigtails -->
  <path d="M 26 20 Q 24 16 26 12 Q 29 10 32 10 Q 35 10 38 12 Q 40 16 38 20" fill="#FF6B6B"/>
  <circle cx="22" cy="20" r="4" fill="#FF6B6B"/>
  <circle cx="42" cy="20" r="4" fill="#FF6B6B"/>

  <!-- Eyes -->
  <circle cx="29" cy="23" r="1.3" fill="#2C3E50"/>
  <circle cx="35" cy="23" r="1.3" fill="#2C3E50"/>

  <!-- Smile -->
  <path d="M 28 26 Q 32 28 36 26" stroke="#E67E22" stroke-width="1.2" stroke-linecap="round" fill="none"/>

  <!-- Neck -->
  <rect x="29" y="31" width="6" height="3" fill="#FFD4A3"/>

  <!-- Dress -->
  <path d="M 28 34 L 22 54 L 42 54 L 36 34 Z" fill="#FFE66D" stroke="#D4AF37" stroke-width="1.5"/>

  <!-- Dress bow -->
  <path d="M 28 34 L 30 36 L 32 34 L 34 36 L 36 34" stroke="#FF6B9D" stroke-width="2" fill="none"/>

  <!-- Arms -->
  <path d="M 28 36 Q 22 40 20 46" stroke="#FFD4A3" stroke-width="3.5" stroke-linecap="round"/>
  <path d="M 36 36 Q 42 40 44 46" stroke="#FFD4A3" stroke-width="3.5" stroke-linecap="round"/>
</svg>
